#!OML:ASF F:\VICON\USERDATA\INSTALL\rory3\rory3.ASF
:FULLY-SPECIFIED
:DEGREES
1
root -0.956905 17.4059 5.56358 -5.048 -78.0399 25.4592
lowerback -11.2428 -1.01871 5.74776
upperback -13.7231 -2.50277 0.383048
thorax -8.62856 -2.14204 -2.81896
lowerneck -7.18913 17.9598 9.96713
upperneck 12.1351 22.961 0.985621
head 5.82559 11.7007 0.67227
rclavicle 1.76918e-014 -4.77083e-015
rhumerus -3.6514 -27.0769 28.1304
rradius 117.703
rwrist -60.6854
rhand -3.87863 -47.1858
rfingers 7.12502
rthumb 21.8705 -75.9698
lclavicle 1.76918e-014 -4.77083e-015
lhumerus 30.4723 32.6251 -5.53306
lradius 29.2319
lwrist 48.1815
lhand -22.4515 -18.3082
lfingers 7.12502
lthumb 3.97273 11.6345
rfemur -12.1242 5.0016 -9.96635
rtibia 20.6919
rfoot 4.88141 -20.8977
rtoes -21.8164
lfemur -16.5182 3.43143 -35.7839
ltibia 9.75175
lfoot -13.1443 -0.868383
ltoes 18.2559
2
root -0.96036 17.3946 5.57147 -5.70152 -77.9055 25.785
lowerback -11.0854 -0.917912 5.9563
upperback -13.5524 -2.36097 0.167142
thorax -8.53146 -2.08642 -3.16373
lowerneck -7.24878 17.9119 10.0618
upperneck 12.1227 22.8997 0.831057
head 5.8581 11.663 0.619856
rclavicle 1.15295e-014 -1.27222e-014
rhumerus -3.87258 -27.0386 28.2277
rradius 117.768
rwrist -60.7831
rhand -4.02552 -48.0791
rfingers 7.12502
rthumb 21.7295 -76.8795
lclavicle 1.15295e-014 -1.27222e-014
lhumerus 30.8497 32.6888 -5.2874
lradius 29.2026
lwrist 48.0549
lhand -22.3305 -17.7493
lfingers 7.12502
lthumb 4.08963 12.1911
rfemur -11.5692 5.7603 -10.1184
rtibia 20.4582
rfoot 5.06477 -21.1599
rtoes -22.972
lfemur -16.0297 3.3587 -35.9851
ltibia 9.71173
lfoot -13.1687 -1.11113
ltoes 18.8013
3
root -0.956711 17.3913 5.57127 -6.17554 -77.824 26.2283
lowerback -11.0465 -1.08133 5.95045
upperback -13.5506 -2.56823 0.329042
thorax -8.56373 -2.18074 -2.99058
lowerneck -6.93366 18.0615 9.7233
upperneck 11.9774 23.196 0.735871
head 5.74499 11.792 0.61834
rclavicle -4.57205e-015 2.38542e-014
rhumerus -3.07054 -27.3147 27.6836
rradius 117.772
rwrist -61.0714
rhand -3.14564 -48.1852
rfingers 7.12502
rthumb 22.5742 -76.8853
lclavicle -4.57205e-015 2.38542e-014
lhumerus 29.7115 32.2098 -6.24655
lradius 29.3366
lwrist 48.6356
lhand -23.3108 -16.1444
lfingers 7.12502
lthumb 3.14294 13.8122
rfemur -11.4185 6.126 -10.2823
rtibia 20.3304
rfoot 2.42615 -21.8407
rtoes -17.0787
lfemur -16.0467 3.30773 -36.0604
ltibia 9.88146
lfoot -13.2134 -1.33562
ltoes 19.0238
4
root -0.953605 17.3908 5.56925 -6.16013 -77.7644 26.1788
lowerback -10.992 -1.06059 5.95577
upperback -13.5091 -2.53858 0.20223
thorax -8.5514 -2.16988 -3.12831
lowerneck -7.01829 18.092 10.1507
upperneck 12.1175 23.1875 0.651463
head 5.86267 11.7967 0.570998
rclavicle 2.36554e-014 -1.59028e-014
rhumerus -3.19245 -27.4198 27.556
rradius 117.975
rwrist -61.1901
rhand -2.48924 -48.4906
rfingers 7.12502
rthumb 23.2041 -77.1128
lclavicle 2.36554e-014 -1.59028e-014
lhumerus 29.7183 32.1371 -6.4366
lradius 29.4361
lwrist 49.0278
lhand -25.4684 -9.00413
lfingers 7.12502
lthumb 1.05916 20.973
rfemur -11.2889 6.21911 -10.3058
rtibia 20.1813
rfoot -0.701455 -22.1283
rtoes -8.5974
lfemur -16.1301 3.26446 -36.0341
ltibia 10.0661
lfoot -13.2615 -1.2841
ltoes 18.7405
5
root -0.949427 17.3928 5.56383 -5.46184 -77.6921 25.449
lowerback -10.9185 -1.11725 6.01832
upperback -13.4908 -2.61135 0.168537
thorax -8.58638 -2.21279 -3.19849
lowerneck -6.9518 18.1573 10.8932
upperneck 12.1856 23.2539 0.228414
head 6.0141 11.8279 0.391318
rclavicle -3.71727e-014 -3.18055e-015
rhumerus -3.26626 -27.172 27.3344
rradius 117.604
rwrist -60.9765
rhand -2.57332 -44.9422
rfingers 7.12502
rthumb 23.1234 -73.5745
lclavicle -3.71727e-014 -3.18055e-015
lhumerus 29.9913 32.5457 -6.28115
lradius 29.5462
lwrist 48.6092
lhand -23.7177 -15.9447
lfingers 7.12502
lthumb 2.74999 14.0173
rfemur -11.2321 5.66574 -10.1453
rtibia 20.0995
rfoot -1.23931 -21.7753
rtoes -5.62064
lfemur -16.2287 3.34794 -35.8762
ltibia 10.2311
lfoot -13.2791 -1.44074
ltoes 18.8413
6
root -0.945738 17.394 5.55744 -4.92107 -77.5685 24.9009
lowerback -10.9042 -1.1333 6.03962
upperback -13.478 -2.62931 0.184941
thorax -8.58218 -2.22093 -3.19318
lowerneck -6.81433 18.0994 11.0582
upperneck 12.0286 23.2108 -0.053772
head 5.99302 11.7951 0.271356
rclavicle 9.74045e-015 7.95139e-015
rhumerus -3.27968 -27.176 27.3041
rradius 117.571
rwrist -61.1149
rhand -2.50164 -46.0479
rfingers 7.12502
rthumb 23.1922 -74.6716
lclavicle 9.74045e-015 7.95139e-015
lhumerus 30.107 32.6379 -6.19284
lradius 29.6002
lwrist 48.5783
lhand -24.2058 -19.2769
lfingers 7.12502
lthumb 2.27864 10.6906
rfemur -11.1705 5.29436 -10.0472
rtibia 20.0695
rfoot -0.525052 -21.4569
rtoes -6.36152
lfemur -16.3146 3.57521 -35.8102
ltibia 10.3426
lfoot -13.3448 -1.86583
ltoes 19.1892
7
root -0.94236 17.3951 5.55236 -4.83546 -77.4529 24.9127
lowerback -11.0017 -1.00089 6.01505
upperback -13.4449 -2.45885 0.0915826
thorax -8.47401 -2.13374 -3.28136
lowerneck -7.09014 17.9359 10.6484
upperneck 12.0552 22.9663 0.212188
head 5.95515 11.6761 0.383432
rclavicle -2.24627e-014 7.95139e-016
rhumerus -3.62517 -27.0887 27.5401
rradius 117.598
rwrist -61.1961
rhand -2.3611 -46.2628
rfingers 7.12502
rthumb 23.327 -74.8695
lclavicle -2.24627e-014 7.95139e-016
lhumerus 30.3042 32.4895 -6.02595
lradius 29.632
lwrist 48.9697
lhand -25.3988 -21.0364
lfingers 7.12502
lthumb 1.12645 8.94042
rfemur -11.1671 5.79941 -10.0886
rtibia 20.0518
rfoot -2.44169 -21.739
rtoes -1.69865
lfemur -16.543 4.15012 -36.0097
ltibia 10.4431
lfoot -13.3689 -2.4301
ltoes 19.8719
8
root -0.937691 17.3962 5.54875 -4.56618 -77.3708 24.7325
lowerback -11.0566 -0.916777 6.00951
upperback -13.4527 -2.35073 0.0656709
thorax -8.44115 -2.08007 -3.30529
lowerneck -7.29122 17.8494 10.3915
upperneck 12.2427 22.8245 0.453411
head 5.98346 11.613 0.488873
rclavicle 1.39149e-015 -1.66979e-014
rhumerus -3.79012 -27.0901 27.6363
rradius 117.673
rwrist -61.1099
rhand -2.00734 -46.0616
rfingers 7.12502
rthumb 23.6664 -74.6247
lclavicle 1.39149e-015 -1.66979e-014
lhumerus 30.4435 32.4312 -5.76285
lradius 29.6173
lwrist 48.952
lhand -25.8511 -20.5314
lfingers 7.12502
lthumb 0.689515 9.44726
rfemur -11.1952 6.22551 -10.0598
rtibia 20.0429
rfoot -4.40174 -21.8875
rtoes 2.75151
lfemur -16.7919 4.93404 -36.2588
ltibia 10.4942
lfoot -13.3806 -2.86395
ltoes 19.6805
9
root -0.934021 17.4006 5.54757 -4.10667 -77.2684 24.3053
lowerback -11.0471 -0.863425 6.03706
upperback -13.4103 -2.2796 -0.0249795
thorax -8.39658 -2.04736 -3.41744
lowerneck -7.60751 17.8328 10.5173
upperneck 12.441 22.7176 0.656967
head 6.08358 11.5763 0.562688
rclavicle 1.76918e-014 1.98785e-014
rhumerus -4.0951 -27.1081 27.6735
rradius 117.717
rwrist -61.1085
rhand -2.06177 -46.794
rfingers 7.12502
rthumb 23.6141 -75.3639
lclavicle 1.76918e-014 1.98785e-014
lhumerus 30.9642 32.8039 -5.24444
lradius 29.4216
lwrist 48.8468
lhand -24.268 -20.6979
lfingers 7.12502
lthumb 2.2185 9.27035
rfemur -11.1923 6.21218 -9.98746
rtibia 20.074
rfoot -4.96065 -21.726
rtoes 4.41546
lfemur -16.82 4.75975 -36.1688
ltibia 10.4803
lfoot -13.431 -2.70353
ltoes 18.3957
10
root -0.931057 17.4068 5.54314 -3.86563 -77.1431 24.1273
lowerback -11.0879 -0.89206 5.99484
upperback -13.4167 -2.31931 -0.0402237
thorax -8.38383 -2.06443 -3.41273
lowerneck -7.59832 17.8657 10.6242
upperneck 12.4903 22.7253 0.802825
head 6.09327 11.5944 0.595204
rclavicle 2.78299e-015 1.98785e-014
rhumerus -4.0422 -27.1125 27.5325
rradius 117.729
rwrist -61.0612
rhand -2.55506 -48.2152
rfingers 7.12502
rthumb 23.1409 -76.8453
lclavicle 2.78299e-015 1.98785e-014
lhumerus 31.2643 33.3885 -4.77567
lradius 29.1613
lwrist 49.3619
lhand -20.1543 -23.6763
lfingers 7.12502
lthumb 6.19083 6.21323
rfemur -11.2332 5.96774 -9.96888
rtibia 20.1352
rfoot -4.56146 -21.5542
rtoes 3.84821
lfemur -16.8012 4.06163 -35.9122
ltibia 10.4981
lfoot -13.3744 -2.58576
ltoes 18.5418
11
root -0.9263 17.4099 5.53368 -3.68004 -77.013 24.0002
lowerback -11.0927 -0.891121 5.88391
upperback -13.4246 -2.31123 -0.0416535
thorax -8.3818 -2.05008 -3.35236
lowerneck -7.61298 17.8134 11.0472
upperneck 12.5714 22.665 0.364535
head 6.2197 11.551 0.433707
rclavicle 2.38542e-015 6.36111e-015
rhumerus -4.015 -27.0909 27.4915
rradius 117.652
rwrist -60.8679
rhand -3.16805 -47.4406
rfingers 7.12502
rthumb 22.5527 -76.1434
lclavicle 2.38542e-015 6.36111e-015
lhumerus 31.6031 33.4026 -4.45189
lradius 29.3332
lwrist 47.9344
lhand -21.2107 -18.4356
lfingers 7.12502
lthumb 5.17089 11.4813
rfemur -11.312 5.56472 -9.91758
rtibia 20.2237
rfoot -3.44337 -21.4954
rtoes 1.21819
lfemur -16.8409 3.73197 -35.7743
ltibia 10.5098
lfoot -13.2721 -2.6459
ltoes 19.2803
12
root -0.920636 17.4085 5.52597 -3.43965 -76.8882 23.7943
lowerback -11.0732 -0.920782 5.79086
upperback -13.4487 -2.34202 0.00645173
thorax -8.41481 -2.05575 -3.24829
lowerneck -7.54891 17.7753 11.6811
upperneck 12.6478 22.6573 -0.384344
head 6.39529 11.5202 0.163248
rclavicle 2.68359e-014 -7.95139e-015
rhumerus -3.84753 -26.9601 27.3432
rradius 117.543
rwrist -60.9509
rhand -4.41312 -44.7742
rfingers 7.12502
rthumb 21.3572 -73.6172
lclavicle 2.68359e-014 -7.95139e-015
lhumerus 31.7342 33.4919 -4.19145
lradius 29.3748
lwrist 47.3133
lhand -21.503 -17.0053
lfingers 7.12502
lthumb 4.88865 12.9183
rfemur -11.3939 5.17434 -9.85201
rtibia 20.3536
rfoot -1.64917 -21.3748
rtoes -3.3515
lfemur -16.8747 3.76978 -35.7672
ltibia 10.4595
lfoot -13.2038 -2.69277
ltoes 18.8937
13
root -0.916747 17.404 5.52233 -3.31111 -76.8023 23.6858
lowerback -11.0729 -0.94122 5.77643
upperback -13.4548 -2.36777 0.0149618
thorax -8.42344 -2.06714 -3.23162
lowerneck -7.49788 17.7669 11.946
upperneck 12.6337 22.6433 -0.556106
head 6.43247 11.5121 0.0824853
rclavicle 5.96354e-016 1.11319e-014
rhumerus -3.75707 -26.8258 27.2621
rradius 117.554
rwrist -61.1722
rhand -5.72387 -44.3162
rfingers 7.12502
rthumb 20.0978 -73.2967
lclavicle 5.96354e-016 1.11319e-014
lhumerus 31.8355 33.5886 -3.98222
lradius 29.43
lwrist 46.7701
lhand -21.5326 -16.6624
lfingers 7.12502
lthumb 4.86005 13.2619
rfemur -11.4691 4.90187 -9.81707
rtibia 20.486
rfoot 1.07409 -21.1061
rtoes -10.7027
lfemur -16.8998 4.01565 -35.8235
ltibia 10.4095
lfoot -13.1667 -2.93055
ltoes 18.5289
14
root -0.912696 17.4022 5.5196 -3.03669 -76.7201 23.4068
lowerback -11.0478 -0.892063 5.85804
upperback -13.447 -2.30324 -0.00618173
thorax -8.42823 -2.04224 -3.29735
lowerneck -7.47655 17.704 11.6919
upperneck 12.4968 22.5439 -0.267864
head 6.31628 11.4742 0.164938
rclavicle -6.36111e-015 1.11319e-014
rhumerus -3.80888 -26.8048 27.3656
rradius 117.645
rwrist -61.2032
rhand -6.72198 -45.769
rfingers 7.12502
rthumb 19.1382 -74.8474
lclavicle -6.36111e-015 1.11319e-014
lhumerus 32.0065 33.5577 -3.79105
lradius 29.4656
lwrist 46.4877
lhand -22.0306 -16.1299
lfingers 7.12502
lthumb 4.37921 13.8048
rfemur -11.505 4.8447 -9.74541
rtibia 20.5909
rfoot 1.62454 -21.0976
rtoes -12.3238
lfemur -16.8995 3.9869 -35.7686
ltibia 10.3704
lfoot -13.1384 -2.97459
ltoes 18.3949
15
root -0.90819 17.4034 5.51342 -2.78869 -76.5934 23.1396
lowerback -10.9779 -0.745318 5.86738
upperback -13.3683 -2.10097 -0.177005
thorax -8.36376 -1.9426 -3.48106
lowerneck -7.96228 17.5964 11.5051
upperneck 12.6514 22.2926 0.155617
head 6.36099 11.3689 0.325174
rclavicle 1.15295e-014 -1.90833e-014
rhumerus -4.38876 -26.7262 27.6804
rradius 117.636
rwrist -61.1711
rhand -6.78861 -45.4068
rfingers 7.12502
rthumb 19.0741 -74.4915
lclavicle 1.15295e-014 -1.90833e-014
lhumerus 32.7955 33.7156 -3.24999
lradius 29.4292
lwrist 46.2751
lhand -22.7307 -14.8354
lfingers 7.12502
lthumb 3.70315 15.1121
rfemur -11.4669 5.04883 -9.71811
rtibia 20.6696
rfoot -2.2176 -21.2992
rtoes -1.65033
lfemur -16.9488 4.31683 -35.835
ltibia 10.3666
lfoot -13.0927 -3.24717
ltoes 18.4219
